<svg width="150" height="60" viewBox="0 0 150 60" fill="none" xmlns="http://www.w3.org/2000/svg">
<path d="M25.8672 33H22.9893L16 53H19.152L25.8672 33Z" fill="#02C2FF"/>
<path d="M32 33H29.0535L22.2355 53H25.3191L32 33Z" fill="#02C2FF"/>
<path d="M25.8672 33H22.9893L16 53H19.152L25.8672 33Z" stroke="#02C2FF"/>
<path d="M32 33H29.0535L22.2355 53H25.3191L32 33Z" stroke="#02C2FF"/>
<path d="M17.22 26V9.8H24.06V12.04H20.52V16.42H23.52V18.72H20.52V26H17.22ZM25.7561 26V9.8H29.0361V26H25.7561ZM31.5169 20.18V18.2H36.5369V20.18H31.5169ZM38.9583 26V9.8H42.2583V23.76H46.0583V26H38.9583ZM46.8106 26L49.9506 9.8H53.6106L56.7306 26H53.6706L53.0906 22.44H50.5306L49.9106 26H46.8106ZM50.8306 20.42H52.7706L51.7906 13.88L50.8306 20.42ZM58.3723 26V9.8H62.4723C63.179 9.8 63.8323 9.86 64.4323 9.98C65.0323 10.1 65.559 10.3133 66.0123 10.62C66.479 10.9267 66.8323 11.3533 67.0723 11.9C67.3257 12.4333 67.4523 13.1333 67.4523 14C67.4523 14.6533 67.359 15.2133 67.1723 15.68C66.9857 16.1333 66.719 16.4933 66.3723 16.76C66.0257 17.0267 65.599 17.2067 65.0923 17.3C65.719 17.3933 66.2457 17.6067 66.6723 17.94C67.099 18.2733 67.419 18.7133 67.6323 19.26C67.8457 19.8067 67.9523 20.4667 67.9523 21.24C67.9523 22.0533 67.8457 22.76 67.6323 23.36C67.4323 23.96 67.1323 24.4533 66.7323 24.84C66.3323 25.2267 65.839 25.52 65.2523 25.72C64.6657 25.9067 63.9857 26 63.2123 26H58.3723ZM61.6723 23.68H62.5923C63.419 23.68 63.9857 23.4733 64.2923 23.06C64.6123 22.6467 64.7723 22.0267 64.7723 21.2C64.7723 20.56 64.699 20.0533 64.5523 19.68C64.4057 19.2933 64.1657 19.0133 63.8323 18.84C63.5123 18.6533 63.079 18.56 62.5323 18.56H61.6723V23.68ZM61.6723 16.34H62.4923C63.0657 16.34 63.499 16.26 63.7923 16.1C64.0857 15.9267 64.2857 15.6733 64.3923 15.34C64.5123 14.9933 64.5723 14.5733 64.5723 14.08C64.5723 13.5867 64.4857 13.1933 64.3123 12.9C64.1523 12.5933 63.899 12.3733 63.5523 12.24C63.219 12.1067 62.7923 12.04 62.2723 12.04H61.6723V16.34ZM76.3767 26V12.26H73.8767V9.8H82.1567V12.26H79.6967V26H76.3767ZM83.6263 26V9.8H90.6863V12.08H86.9263V16.38H89.8263V18.68H86.9263V23.76H90.7263V26H83.6263ZM96.5958 26.22C95.5958 26.22 94.7624 26.04 94.0958 25.68C93.4291 25.3067 92.9224 24.7533 92.5758 24.02C92.2424 23.2733 92.0491 22.3267 91.9958 21.18L94.8358 20.7C94.8624 21.3667 94.9291 21.9267 95.0358 22.38C95.1558 22.82 95.3291 23.1533 95.5558 23.38C95.7958 23.5933 96.0891 23.7 96.4358 23.7C96.8624 23.7 97.1491 23.5667 97.2958 23.3C97.4558 23.0333 97.5358 22.7267 97.5358 22.38C97.5358 21.7 97.3691 21.1333 97.0358 20.68C96.7158 20.2133 96.2891 19.7467 95.7558 19.28L94.0758 17.82C93.4758 17.3133 92.9824 16.74 92.5958 16.1C92.2224 15.46 92.0358 14.6733 92.0358 13.74C92.0358 12.4067 92.4224 11.3867 93.1958 10.68C93.9824 9.96 95.0558 9.6 96.4158 9.6C97.2291 9.6 97.8958 9.73333 98.4158 10C98.9358 10.2667 99.3358 10.6267 99.6158 11.08C99.9091 11.52 100.109 12.0067 100.216 12.54C100.336 13.06 100.409 13.58 100.436 14.1L97.6158 14.52C97.5891 14.0267 97.5424 13.5933 97.4758 13.22C97.4224 12.8467 97.3024 12.5533 97.1158 12.34C96.9424 12.1267 96.6758 12.02 96.3158 12.02C95.9291 12.02 95.6424 12.1667 95.4558 12.46C95.2691 12.74 95.1758 13.0533 95.1758 13.4C95.1758 13.9733 95.3024 14.4467 95.5558 14.82C95.8224 15.18 96.1824 15.56 96.6358 15.96L98.2758 17.4C98.9558 17.9867 99.5358 18.66 100.016 19.42C100.509 20.1667 100.756 21.0933 100.756 22.2C100.756 22.96 100.582 23.6467 100.236 24.26C99.8891 24.8733 99.4024 25.3533 98.7758 25.7C98.1624 26.0467 97.4358 26.22 96.5958 26.22ZM104.013 26V12.26H101.513V9.8H109.793V12.26H107.333V26H104.013ZM36.42 53L39.56 36.8H43.22L46.34 53H43.28L42.7 49.44H40.14L39.52 53H36.42ZM40.44 47.42H42.38L41.4 40.88L40.44 47.42ZM52.4245 53.22C51.1979 53.22 50.2445 53.0133 49.5645 52.6C48.8845 52.1733 48.4045 51.5667 48.1245 50.78C47.8579 49.98 47.7245 49.0133 47.7245 47.88V36.8H50.9845V48.34C50.9845 48.74 51.0112 49.1333 51.0645 49.52C51.1312 49.9067 51.2645 50.22 51.4645 50.46C51.6779 50.7 51.9979 50.82 52.4245 50.82C52.8645 50.82 53.1845 50.7 53.3845 50.46C53.5979 50.22 53.7312 49.9067 53.7845 49.52C53.8379 49.1333 53.8645 48.74 53.8645 48.34V36.8H57.1245V47.88C57.1245 49.0133 56.9845 49.98 56.7045 50.78C56.4379 51.5667 55.9645 52.1733 55.2845 52.6C54.6045 53.0133 53.6512 53.22 52.4245 53.22ZM60.947 53V39.26H58.447V36.8H66.727V39.26H64.267V53H60.947ZM72.5994 53.22C71.4127 53.22 70.4727 53.0067 69.7794 52.58C69.086 52.1533 68.586 51.5467 68.2794 50.76C67.986 49.96 67.8394 49.0067 67.8394 47.9V41.86C67.8394 40.7533 67.986 39.8067 68.2794 39.02C68.586 38.2333 69.086 37.6333 69.7794 37.22C70.4727 36.8067 71.4127 36.6 72.5994 36.6C73.7994 36.6 74.746 36.8133 75.4394 37.24C76.146 37.6533 76.646 38.2533 76.9394 39.04C77.246 39.8133 77.3994 40.7533 77.3994 41.86V47.9C77.3994 49.0067 77.246 49.96 76.9394 50.76C76.646 51.5467 76.146 52.1533 75.4394 52.58C74.746 53.0067 73.7994 53.22 72.5994 53.22ZM72.5994 50.84C73.026 50.84 73.3394 50.7467 73.5394 50.56C73.7394 50.36 73.8727 50.1 73.9394 49.78C74.006 49.4467 74.0394 49.0933 74.0394 48.72V41.06C74.0394 40.6867 74.006 40.34 73.9394 40.02C73.8727 39.7 73.7394 39.4467 73.5394 39.26C73.3394 39.06 73.026 38.96 72.5994 38.96C72.1994 38.96 71.8994 39.06 71.6994 39.26C71.4994 39.4467 71.366 39.7 71.2994 40.02C71.2327 40.34 71.1994 40.6867 71.1994 41.06V48.72C71.1994 49.0933 71.226 49.4467 71.2794 49.78C71.346 50.1 71.4794 50.36 71.6794 50.56C71.8794 50.7467 72.186 50.84 72.5994 50.84ZM79.5428 53L79.8228 36.8H83.3228L85.3228 47.02L87.4628 36.8H90.8428L91.1228 53H88.7228L88.4628 42.02L86.4028 53H84.3428L82.1828 41.94L81.9628 53H79.5428ZM92.7091 53L95.8491 36.8H99.5091L102.629 53H99.5691L98.9891 49.44H96.4291L95.8091 53H92.7091ZM96.7291 47.42H98.6691L97.6891 40.88L96.7291 47.42ZM104.97 53V39.26H102.47V36.8H110.75V39.26H108.29V53H104.97ZM116.623 53.22C115.436 53.22 114.496 53.0067 113.803 52.58C113.109 52.1533 112.609 51.5467 112.303 50.76C112.009 49.96 111.863 49.0067 111.863 47.9V41.86C111.863 40.7533 112.009 39.8067 112.303 39.02C112.609 38.2333 113.109 37.6333 113.803 37.22C114.496 36.8067 115.436 36.6 116.623 36.6C117.823 36.6 118.769 36.8133 119.463 37.24C120.169 37.6533 120.669 38.2533 120.963 39.04C121.269 39.8133 121.423 40.7533 121.423 41.86V47.9C121.423 49.0067 121.269 49.96 120.963 50.76C120.669 51.5467 120.169 52.1533 119.463 52.58C118.769 53.0067 117.823 53.22 116.623 53.22ZM116.623 50.84C117.049 50.84 117.363 50.7467 117.563 50.56C117.763 50.36 117.896 50.1 117.963 49.78C118.029 49.4467 118.063 49.0933 118.063 48.72V41.06C118.063 40.6867 118.029 40.34 117.963 40.02C117.896 39.7 117.763 39.4467 117.563 39.26C117.363 39.06 117.049 38.96 116.623 38.96C116.223 38.96 115.923 39.06 115.723 39.26C115.523 39.4467 115.389 39.7 115.323 40.02C115.256 40.34 115.223 40.6867 115.223 41.06V48.72C115.223 49.0933 115.249 49.4467 115.303 49.78C115.369 50.1 115.503 50.36 115.703 50.56C115.903 50.7467 116.209 50.84 116.623 50.84ZM123.626 53V36.8H127.826C128.92 36.8 129.853 36.9267 130.626 37.18C131.413 37.42 132.013 37.8533 132.426 38.48C132.853 39.1067 133.066 39.9733 133.066 41.08C133.066 41.7467 133.006 42.34 132.886 42.86C132.78 43.3667 132.58 43.8133 132.286 44.2C132.006 44.5733 131.606 44.8733 131.086 45.1L133.326 53H129.946L128.086 45.66H126.926V53H123.626ZM126.926 43.7H127.886C128.42 43.7 128.84 43.6133 129.146 43.44C129.453 43.2667 129.666 43.0067 129.786 42.66C129.92 42.3 129.986 41.86 129.986 41.34C129.986 40.5933 129.846 40.0267 129.566 39.64C129.3 39.24 128.793 39.04 128.046 39.04H126.926V43.7Z" fill="url(#paint0_linear_6_16)"/>
<defs>
<linearGradient id="paint0_linear_6_16" x1="22" y1="16" x2="102" y2="53" gradientUnits="userSpaceOnUse">
<stop stop-color="#141E30" stop-opacity="0.81"/>
<stop offset="1" stop-color="#243B55"/>
</linearGradient>
</defs>
</svg>
